<svg xmlns="http://www.w3.org/2000/svg" width="486.026" height="802.589" viewBox="0 0 486.026 802.589"><defs><style>.a{fill:#d23e3e;stroke:#d23e3e;stroke-miterlimit:10;stroke-width:24px;}.b{fill:#cd9963;}.c{fill:#820f54;}.d{fill:#a40f68;}.e{fill:#b41172;}.f{fill:#eeb173;}.g{fill:#e33f35;}.h{fill:#ba8b5b;}.i{fill:#f2f2f2;}.j{fill:#fff;}</style></defs><g transform="translate(-140.366 -112.574)"><path class="a" d="M523.86,703.168H496.105a45.809,45.809,0,0,0-8.814.859A150.379,150.379,0,0,0,414.28,662.72V628.9a179.431,179.431,0,0,0,55.436-29.227c-20.011-8.834-33.382-24.834-33.382-43.1,0-27.827,31.013-50.385,69.269-50.385a92.086,92.086,0,0,1,26.079,3.7q1.18-3.888,2.193-7.847c-.105.413-.207.826-.315,1.238a15.776,15.776,0,0,0,21.688-14.642V432.873a15.765,15.765,0,0,0-20.2-15.155h0a178.651,178.651,0,0,0-7.528-24.826,15.318,15.318,0,0,0,6.039-12.2h0a15.347,15.347,0,0,0-15.347-15.347h-4.089a180.41,180.41,0,0,0-15.5-22.021c-37.742-10.667-64.459-37.094-64.459-68.006,0-21.806,13.3-41.376,34.378-54.76V169.834a35.107,35.107,0,0,0-35.107-35.107h-8.66a35.106,35.106,0,0,0-35.107,35.107v34.015a35.108,35.108,0,0,0-35.107-35.107H345.9a35.108,35.108,0,0,0-35.107,35.107v34.014a35.106,35.106,0,0,0-35.107-35.107h-8.66a35.107,35.107,0,0,0-35.107,35.107v92.664a179.985,179.985,0,0,0,75.644,299.255V662.72a150.376,150.376,0,0,0-73.011,41.307,45.815,45.815,0,0,0-8.814-.859H197.984a45.618,45.618,0,0,0-45.618,45.618V849.2a45.62,45.62,0,0,0,39.275,45.17v15.3H530.2v-15.3a45.62,45.62,0,0,0,39.275-45.17V748.786A45.618,45.618,0,0,0,523.86,703.168Z" transform="translate(0 -6.503)"/><g transform="translate(181.169 112.574)"><rect class="b" width="109.672" height="274.246" transform="translate(159.5 475.361)"/><path class="c" d="M40.53,0h0A40.53,40.53,0,0,1,81.06,40.53V155.5a0,0,0,0,1,0,0H0a0,0,0,0,1,0,0V40.53A40.53,40.53,0,0,1,40.53,0Z" transform="translate(81.76 69.915)"/><path class="d" d="M40.53,0h0A40.53,40.53,0,0,1,81.06,40.53V190.453a0,0,0,0,1,0,0H0a0,0,0,0,1,0,0V40.53A40.53,40.53,0,0,1,40.53,0Z" transform="translate(162.82 34.958)"/><path class="e" d="M40.53,0h0A40.53,40.53,0,0,1,81.06,40.53V237.012a0,0,0,0,1,0,0H0a0,0,0,0,1,0,0V40.53A40.53,40.53,0,0,1,40.53,0Z" transform="translate(243.88)"/><path class="e" d="M759.832,248.145l-31,11.369a4.346,4.346,0,0,0-1.289,7.416h0a4.345,4.345,0,0,1,.551,6.121L707.786,297.38a4.346,4.346,0,0,1-6.121.551L688.6,287.025l.006-.008c-.93-.9-7.952-7.481-18.366-6.3a23.348,23.348,0,0,0-15.908,9.386l.008.006-26.493,31.731a4.346,4.346,0,0,0,.551,6.121l12,10.018a4.346,4.346,0,0,0,6.121-.551l23.708-28.4a4.345,4.345,0,0,1,6.121-.55l13.063,10.907h0c.673.771,7.307,8.106,17.745,7.2,9.819-.853,15.024-8.307,15.683-9.285l23.93-28.662a4.438,4.438,0,0,1,2.947-1.544,4.332,4.332,0,0,1,3.175.993h0a4.346,4.346,0,0,0,7.067-2.592l5.653-32.528A4.346,4.346,0,0,0,759.832,248.145Z" transform="translate(-320.455 -152.293)"/><path class="f" d="M527.8,624.151c-13.813-1.3-23.281-12.885-21.238-24.852,2.042-11.993,13.37-20.08,25.381-18.962a352.206,352.206,0,0,0,54.3.929A184.284,184.284,0,0,0,602.562,505.2c0-102.144-82.8-184.947-184.947-184.947S232.668,403.058,232.668,505.2s82.8,184.946,184.947,184.946A184.522,184.522,0,0,0,557.8,625.837Q542.781,625.56,527.8,624.151Z" transform="translate(-204.743 -173.541)"/><path class="b" d="M416.084,493.1a62.84,62.84,0,0,0,0,125.681Z" transform="translate(-240.139 -224.282)"/><path class="g" d="M659.164,762.779a19.953,19.953,0,0,1-9.911-.918,20.186,20.186,0,0,1-8.929-6.372,19.945,19.945,0,0,1-4.161-9.417,19.986,19.986,0,0,0-6.754-12.087,17.611,17.611,0,0,0-1.745-1.342,20.746,20.746,0,0,1-7.615-17.3,36.2,36.2,0,0,1,55.823,24.429A20.106,20.106,0,0,1,659.164,762.779Z" transform="translate(-318.446 -287.737)"/><path class="b" d="M753.752,523.34a16.2,16.2,0,0,0-4.53.654,186.122,186.122,0,0,1-1.529,87.922,16.213,16.213,0,0,0,22.288-15.047v-57.3A16.229,16.229,0,0,0,753.752,523.34Z" transform="translate(-355.933 -233.159)"/><circle class="h" cx="23.186" cy="23.186" r="23.186" transform="translate(293.645 258.012)"/><rect class="e" width="31.544" height="134.863" rx="15.772" transform="translate(391.759 237.012) rotate(90)"/><path class="h" d="M426.615,528.976a37.5,37.5,0,0,0,0,75Z" transform="translate(-250.67 -234.813)"/><rect class="i" width="122.29" height="196.962" rx="61.145" transform="translate(306.383 584.196)"/><path class="j" d="M478.893,880.623a54.821,54.821,0,0,1-109.289,0A154.812,154.812,0,0,0,250.275,1031.3v103.161H598.22V1031.3A154.812,154.812,0,0,0,478.893,880.623Z" transform="translate(-209.911 -338.042)"/><rect class="j" width="122.29" height="196.962" rx="61.145" transform="translate(0 584.196)"/></g></g></svg>